<svg width="679" height="679" viewBox="0 0 679 679" fill="none" xmlns="http://www.w3.org/2000/svg">
<path d="M451.963 112.463L520.886 218.766L592.351 323.378L534.751 436.218L479.888 550.414L353.365 556.952L227.037 566.537L158.113 460.234L86.6486 355.622L144.248 242.782L199.112 128.586L325.635 122.048L451.963 112.463Z" fill="#F6881F" fill-opacity="0.52"/>
<path d="M453.801 270.012L518.539 311.44L584.256 351.296L580.747 428.075L579.089 504.915L510.843 540.266L443.468 577.25L378.731 535.822L313.013 495.966L316.522 419.188L318.18 342.347L386.426 306.997L453.801 270.012Z" fill="#FABB00" fill-opacity="0.13"/>
<rect x="638.759" y="399.988" width="212.283" height="15.3356" rx="7.66778" transform="rotate(150.159 638.759 399.988)" fill="#FCA900" fill-opacity="0.43"/>
<rect x="655.734" y="417.861" width="212.283" height="15.3356" rx="7.66778" transform="rotate(150.159 655.734 417.861)" fill="#FCA900" fill-opacity="0.43"/>
<rect x="672.713" y="435.729" width="212.283" height="15.3356" rx="7.66778" transform="rotate(150.159 672.713 435.729)" fill="#FCA900" fill-opacity="0.43"/>
<circle r="9.22335" transform="matrix(1 0 0 -1 361.037 127.712)" fill="#FF8100"/>
<circle r="9.22335" transform="matrix(1 0 0 -1 473.85 127.712)" fill="#FF8100"/>
<circle r="9.22335" transform="matrix(1 0 0 -1 361.037 155.384)" fill="#FF8100"/>
<circle r="9.22335" transform="matrix(1 0 0 -1 473.85 155.384)" fill="#FF8100"/>
<circle r="9.22335" transform="matrix(1 0 0 -1 361.037 183.054)" fill="#FF8100"/>
<circle r="9.22335" transform="matrix(1 0 0 -1 473.85 183.054)" fill="#FF8100"/>
<circle r="9.22335" transform="matrix(1 0 0 -1 389.548 127.712)" fill="#FF8100"/>
<circle r="9.22335" transform="matrix(1 0 0 -1 502.36 127.712)" fill="#FF8100"/>
<circle r="9.22335" transform="matrix(1 0 0 -1 389.548 155.384)" fill="#FF8100"/>
<circle r="9.22335" transform="matrix(1 0 0 -1 502.36 155.384)" fill="#FF8100"/>
<circle r="9.22335" transform="matrix(1 0 0 -1 389.548 183.054)" fill="#FF8100"/>
<circle r="9.22335" transform="matrix(1 0 0 -1 502.36 183.054)" fill="#FF8100"/>
<circle r="9.22335" transform="matrix(1 0 0 -1 418.055 127.712)" fill="#FF8100"/>
<circle r="9.22335" transform="matrix(1 0 0 -1 530.867 127.712)" fill="#FF8100"/>
<circle r="9.22335" transform="matrix(1 0 0 -1 418.055 155.384)" fill="#FF8100"/>
<circle r="9.22335" transform="matrix(1 0 0 -1 530.867 155.384)" fill="#FF8100"/>
<circle r="9.22335" transform="matrix(1 0 0 -1 418.055 183.054)" fill="#FF8100"/>
<circle r="9.22335" transform="matrix(1 0 0 -1 530.867 183.054)" fill="#FF8100"/>
<circle r="9.22335" transform="matrix(1 0 0 -1 446.563 127.712)" fill="#FF8100"/>
<circle r="9.22335" transform="matrix(1 0 0 -1 559.376 127.712)" fill="#FF8100"/>
<circle r="9.22335" transform="matrix(1 0 0 -1 446.563 155.384)" fill="#FF8100"/>
<circle r="9.22335" transform="matrix(1 0 0 -1 559.376 155.384)" fill="#FF8100"/>
<circle r="9.22335" transform="matrix(1 0 0 -1 446.563 183.054)" fill="#FF8100"/>
<circle r="9.22335" transform="matrix(1 0 0 -1 559.376 183.054)" fill="#FF8100"/>
</svg>
